GRF
version=1
nRows=25
nColumns=28
inDegrees=no
endheader
time	plate1_ground_force_vx	plate1_ground_force_vy	plate1_ground_force_vz	plate1_ground_force_px	plate1_ground_force_py	plate1_ground_force_pz	plate1_ground_torque_x	plate1_ground_torque_y	plate1_ground_torque_z	plate2_ground_force_vx	plate2_ground_force_vy	plate2_ground_force_vz	plate2_ground_force_px	plate2_ground_force_py	plate2_ground_force_pz	plate2_ground_torque_x	plate2_ground_torque_y	plate2_ground_torque_z	plate3_ground_force_vx	plate3_ground_force_vy	plate3_ground_force_vz	plate3_ground_force_px	plate3_ground_force_py	plate3_ground_force_pz	plate3_ground_torque_x	plate3_ground_torque_y	plate3_ground_torque_z
      1.50000000	      0.00000000	      0.00000000	      0.00000000	      0.00000000	      0.00000000	      0.00000000	      0.00000000	      0.00000000	      0.00000000	    -21.93049425	    479.15323697	    -10.20594755	      0.98773626	      0.00000000	      0.26136318	     -0.00000000	      1.39727437	      0.00000000	      0.00000000	      0.00000000	      0.00000000	      0.00000000	      0.00000000	      0.00000000	      0.00000000	      0.00000000	      0.00000000
      1.51000000	      0.00000000	      0.00000000	      0.00000000	      0.00000000	      0.00000000	      0.00000000	      0.00000000	      0.00000000	      0.00000000	    -19.65425119	    479.83467056	    -10.84634935	      0.99295047	      0.00000000	      0.26193988	     -0.00000000	      1.44010096	      0.00000000	      0.00000000	      0.00000000	      0.00000000	      0.00000000	      0.00000000	      0.00000000	      0.00000000	      0.00000000	      0.00000000
      1.52000000	      0.00000000	      0.00000000	      0.00000000	      0.00000000	      0.00000000	      0.00000000	      0.00000000	      0.00000000	      0.00000000	    -17.11416205	    481.72733912	    -11.63661337	      0.99795663	      0.00000000	      0.26246272	     -0.00000000	      1.47594197	      0.00000000	      0.00000000	      0.00000000	      0.00000000	      0.00000000	      0.00000000	      0.00000000	      0.00000000	      0.00000000	      0.00000000
      1.53000000	      0.00000000	      0.00000000	      0.00000000	      0.00000000	      0.00000000	      0.00000000	      0.00000000	      0.00000000	      0.00000000	    -14.27201743	    484.93411149	    -12.54210495	      1.00268446	      0.00000000	      0.26292376	     -0.00000000	      1.50535685	      0.00000000	      0.00000000	      0.00000000	      0.00000000	      0.00000000	      0.00000000	      0.00000000	      0.00000000	      0.00000000	      0.00000000
      1.54000000	      0.00000000	      0.00000000	      0.00000000	      0.00000000	      0.00000000	      0.00000000	      0.00000000	      0.00000000	      0.00000000	    -11.08702438	    489.54408655	    -13.52512842	      1.00706109	      0.00000000	      0.26331009	     -0.00000000	      1.52938617	      0.00000000	      0.00000000	      0.00000000	      0.00000000	      0.00000000	      0.00000000	      0.00000000	      0.00000000	      0.00000000	      0.00000000
      1.55000000	      0.00000000	      0.00000000	      0.00000000	      0.00000000	      0.00000000	      0.00000000	      0.00000000	      0.00000000	      0.00000000	     -7.53262412	    495.63497970	    -14.53551238	      1.01102944	      0.00000000	      0.26360803	     -0.00000000	      1.55110599	     -0.00000000	      0.00000000	      0.00000000	      0.00000000	      0.00000000	      0.00000000	      0.00000000	      0.00000000	      0.00000000	      0.00000000
      1.56000000	      0.00000000	      0.00000000	      0.00000000	      0.00000000	      0.00000000	      0.00000000	      0.00000000	      0.00000000	      0.00000000	     -3.60458396	    503.27134535	    -15.50625908	      1.01456207	      0.00000000	      0.26380715	     -0.00000000	      1.57641741	     -0.00000000	      0.00000000	      0.00000000	      0.00000000	      0.00000000	      0.00000000	      0.00000000	      0.00000000	      0.00000000	      0.00000000
      1.57000000	      0.00000000	      0.00000000	      0.00000000	      0.00000000	      0.00000000	      0.00000000	      0.00000000	      0.00000000	      0.00000000	      0.68086082	    512.49310458	    -16.35947885	      1.01766518	      0.00000000	      0.26390293	     -0.00000000	      1.61324237	     -0.00000000	      0.00000000	      0.00000000	      0.00000000	      0.00000000	      0.00000000	      0.00000000	      0.00000000	      0.00000000	      0.00000000
      1.58000000	      0.00000000	      0.00000000	      0.00000000	      0.00000000	      0.00000000	      0.00000000	      0.00000000	      0.00000000	      0.00000000	      5.29602028	    523.29117804	    -17.02198704	      1.02037187	      0.00000000	      0.26389828	      0.00000000	      1.66925357	     -0.00000000	      0.00000000	      0.00000000	      0.00000000	      0.00000000	      0.00000000	      0.00000000	      0.00000000	      0.00000000	      0.00000000
      1.59000000	      0.00000000	      0.00000000	      0.00000000	      0.00000000	      0.00000000	      0.00000000	      0.00000000	      0.00000000	      0.00000000	     10.21365879	    535.57149342	    -17.44416413	      1.02272859	      0.00000000	      0.26380419	      0.00000000	      1.74914813	     -0.00000000	      0.00000000	      0.00000000	      0.00000000	      0.00000000	      0.00000000	      0.00000000	      0.00000000	      0.00000000	      0.00000000
      1.60000000	      0.00000000	      0.00000000	      0.00000000	      0.00000000	      0.00000000	      0.00000000	      0.00000000	      0.00000000	      0.00000000	     15.41795228	    549.11486385	    -17.61388043	      1.02478159	      0.00000000	      0.26363929	      0.00000000	      1.85263040	     -0.00000000	      0.00000000	      0.00000000	      0.00000000	      0.00000000	      0.00000000	      0.00000000	      0.00000000	      0.00000000	      0.00000000
      1.61000000	      0.00000000	      0.00000000	      0.00000000	      0.00000000	      0.00000000	      0.00000000	      0.00000000	      0.00000000	      0.00000000	     20.91139779	    563.54524227	    -17.56026071	      1.02656912	      0.00000000	      0.26342825	      0.00000000	      1.97370185	     -0.00000000	      0.00000000	      0.00000000	      0.00000000	      0.00000000	      0.00000000	      0.00000000	      0.00000000	      0.00000000	      0.00000000
      1.62000000	      0.00000000	      0.00000000	      0.00000000	      0.00000000	      0.00000000	      0.00000000	      0.00000000	      0.00000000	      0.00000000	     26.71504765	    578.31866359	    -17.34709193	      1.02812126	      0.00000000	      0.26319939	      0.00000000	      2.10115066	      0.00000000	      0.00000000	      0.00000000	      0.00000000	      0.00000000	      0.00000000	      0.00000000	      0.00000000	      0.00000000	      0.00000000
      1.63000000	      0.00000000	      0.00000000	      0.00000000	      0.00000000	      0.00000000	      0.00000000	      0.00000000	      0.00000000	      0.00000000	     32.86037384	    592.73869473	    -17.05923199	      1.02946498	      0.00000000	      0.26298211	      0.00000000	      2.21984578	      0.00000000	      0.00000000	      0.00000000	      0.00000000	      0.00000000	      0.00000000	      0.00000000	      0.00000000	      0.00000000	      0.00000000
      1.64000000	      0.00000000	      0.00000000	      0.00000000	      0.00000000	      0.00000000	      0.00000000	      0.00000000	      0.00000000	      0.00000000	     39.37330264	    605.99497328	    -16.78602608	      1.03062994	      0.00000000	      0.26280513	      0.00000000	      2.31258829	      0.00000000	      0.00000000	      0.00000000	      0.00000000	      0.00000000	      0.00000000	      0.00000000	      0.00000000	      0.00000000	      0.00000000
      1.65000000	      0.00000000	      0.00000000	      0.00000000	      0.00000000	      0.00000000	      0.00000000	      0.00000000	      0.00000000	      0.00000000	     46.25394646	    617.21482176	    -16.60456727	      1.03165148	      0.00000000	      0.26269491	     -0.00000000	      2.36244549	      0.00000000	      0.00000000	      0.00000000	      0.00000000	      0.00000000	      0.00000000	      0.00000000	      0.00000000	      0.00000000	      0.00000000
      1.66000000	      0.00000000	      0.00000000	      0.00000000	      0.00000000	      0.00000000	      0.00000000	      0.00000000	      0.00000000	      0.00000000	     53.45748682	    625.51669832	    -16.56448254	      1.03256980	      0.00000000	      0.26267375	     -0.00000000	      2.35536896	      0.00000000	      0.00000000	      0.00000000	      0.00000000	      0.00000000	      0.00000000	      0.00000000	      0.00000000	      0.00000000	      0.00000000
      1.67000000	      0.00000000	      0.00000000	      0.00000000	      0.00000000	      0.00000000	      0.00000000	      0.00000000	      0.00000000	      0.00000000	     60.88112564	    630.05695452	    -16.67566546	      1.03342678	      0.00000000	      0.26275682	     -0.00000000	      2.28258314	      0.00000000	      0.00000000	      0.00000000	      0.00000000	      0.00000000	      0.00000000	      0.00000000	      0.00000000	      0.00000000	      0.00000000
      1.68000000	      0.00000000	      0.00000000	      0.00000000	      0.00000000	      0.00000000	      0.00000000	      0.00000000	      0.00000000	      0.00000000	     68.35942289	    630.06503038	    -16.90074702	      1.03426284	      0.00000000	      0.26294918	     -0.00000000	      2.14209307	      0.00000000	      0.00000000	      0.00000000	      0.00000000	      1.53224465	      0.00000000	      0.23467493	      0.00000000	      0.00000000	      0.00000000
      1.69000000	      0.00000000	      0.00000000	      0.00000000	      0.00000000	      0.00000000	      0.00000000	      0.00000000	      0.00000000	      0.00000000	     75.66746544	    624.86558081	    -17.15445170	      1.03511582	      0.00000000	      0.26324432	     -0.00000000	      1.93891388	      0.00000000	      0.00000000	      0.00000000	      0.00000000	      1.53224465	      0.00000000	      0.23467493	      0.00000000	      0.00000000	      0.00000000
      1.70000000	      0.00000000	      0.00000000	      0.00000000	      0.00000000	      0.00000000	      0.00000000	      0.00000000	      0.00000000	      0.00000000	     82.52964122	    613.88993774	    -17.31183392	      1.03602206	      0.00000000	      0.26362549	     -0.00000000	      1.68411356	      0.00000000	      0.00000000	      0.00000000	      0.00000000	      1.53224465	      0.00000000	      0.23467493	      0.00000000	      0.00000000	      0.00000000
      1.71000000	      0.00000000	      0.00000000	      0.00000000	      0.00000000	      0.00000000	      0.00000000	      0.00000000	      0.00000000	      0.00000000	     88.63142051	    596.68424198	    -17.22639180	      1.03701939	      0.00000000	      0.26406946	     -0.00000000	      1.39313243	      0.00000000	     -2.72341619	     66.46059464	     -2.77856592	      1.53490400	      0.00000000	      0.23283076	      0.00000000	      0.06933394	      0.00000000
      1.72000000	      0.00000000	      0.00000000	      0.00000000	      0.00000000	      0.00000000	      0.00000000	      0.00000000	      0.00000000	      0.00000000	     93.63186077	    572.92564794	    -16.75700092	      1.03815200	      0.00000000	      0.26455115	     -0.00000000	      1.08387887	      0.00000000	     -5.96291668	     96.67182964	     -3.81394504	      1.54794527	      0.00000000	      0.22347550	      0.00000000	      0.05834483	      0.00000000
      1.73000000	      0.00000000	      0.00000000	      0.00000000	      0.00000000	      0.00000000	      0.00000000	      0.00000000	      0.00000000	      0.00000000	     97.17566023	    542.45804969	    -15.79968934	      1.03947864	      0.00000000	      0.26504686	     -0.00000000	      0.77488695	      0.00000000	    -11.18428401	    132.36087447	     -4.73239733	      1.56030285	      0.00000000	      0.21435496	     -0.00000000	      0.04866286	      0.00000000
      1.74000000	      0.00000000	      0.00000000	      0.00000000	      0.00000000	      0.00000000	      0.00000000	      0.00000000	      0.00000000	      0.00000000	     98.90649809	    505.35337615	    -14.31733031	      1.04108538	      0.00000000	      0.26553357	     -0.00000000	      0.48361971	      0.00000000	    -18.64068955	    171.95983724	     -5.27672838	      1.57174393	      0.00000000	      0.20605641	     -0.00000000	      0.03997361	      0.00000000
